# xmcd CD database file
#
# Track frame offsets:
#	150
#	15534
#	29861
#	49432
#	66137
#	81013
#	99032
#	125419
#	144482
#	164248
#	183931
#	200912
#
# Disc length: 2919 seconds
#
# Revision: 0
# Processed by: cddbd v1.4PL0 Copyright (c) Steve Scherf et al.
# Submitted via: Feurio! 1.63 - http://www.feurio.com
#
DISCID=ad0b650c
DTITLE=Csocsesz - Nincs hibám
DYEAR=1900
DGENRE=
TTITLE0=Nincs hibám
TTITLE1=Nevem Csocsesz (Csocsogó)
TTITLE2=Csórikám
TTITLE3=Mókuszõr
TTITLE4=Nem kell más
TTITLE5=Hé, Mester
TTITLE6=Nincs hibám
TTITLE7=Keresnem kell...
TTITLE8=Mesebeli Afrika
TTITLE9=Erdõ szélén
TTITLE10=Egy kis itóka
TTITLE11=Nem szeretem én a babot
EXTD=
EXTT0=
EXTT1=
EXTT2=
EXTT3=
EXTT4=
EXTT5=
EXTT6=
EXTT7=
EXTT8=
EXTT9=
EXTT10=
EXTT11=
PLAYORDER=
